<svg xmlns="http://www.w3.org/2000/svg" xmlns:xlink="http://www.w3.org/1999/xlink" xmlns:lucid="lucid" width="954.81" height="504.17"><g transform="translate(-563.6043264202258 -1010.8864249367689)" lucid:page-tab-id="qvuMu~.~wrXD"><path d="M565.1 1018.4a6 6 0 0 1 6-6h246.6a6 6 0 0 1 6 6v187.73a6 6 0 0 1-6 6H571.1a6 6 0 0 1-6-6z" stroke="#282c33" stroke-width="3" fill-opacity="0"/><use xlink:href="#a" transform="matrix(1,0,0,1,570.1043264202258,1017.3864249367689) translate(77.84722222222223 107.7109375)"/><path d="M791.37 1428.55c0 11.03-43.42 19.97-96.97 19.97-53.56 0-96.97-8.94-96.97-19.97v-159.8c0-11.02 43.4-19.97 96.97-19.97 53.55 0 96.97 8.95 96.97 19.98z" stroke="#282c33" stroke-width="3" fill-opacity="0"/><path d="M791.37 1268.76c0 11.03-43.42 19.97-96.97 19.97-53.56 0-96.97-8.94-96.97-19.97" stroke="#282c33" stroke-width="3" fill="none"/><use xlink:href="#b" transform="matrix(1,0,0,1,602.4272537517261,1293.732041925757) translate(9.083333333333357 87.828125)"/><path d="M944.04 1018.4a6 6 0 0 1 6-6h246.6a6 6 0 0 1 5.98 6v187.73a6 6 0 0 1-6 6H950.04a6 6 0 0 1-6-6z" stroke="#282c33" stroke-width="3" fill-opacity="0"/><use xlink:href="#c" transform="matrix(1,0,0,1,956.0416240073314,1024.386424936769) translate(47.291666666666686 100.8125)"/><path d="M1516.92 1192.15c0 11.03-43.42 19.97-96.97 19.97-53.56 0-96.97-8.94-96.97-19.97v-159.8c0-11.02 43.4-19.96 96.97-19.96 53.55 0 96.97 8.93 96.97 19.96z" stroke="#282c33" stroke-width="3" fill-opacity="0"/><path d="M1516.92 1032.36c0 11.03-43.42 19.97-96.97 19.97-53.56 0-96.97-8.94-96.97-19.97" stroke="#282c33" stroke-width="3" fill="none"/><use xlink:href="#d" transform="matrix(1,0,0,1,1327.978921594437,1057.334075770704) translate(47.09722222222224 87.828125)"/><path d="M695.8 1467.44l.57 3.06.72 3.04.77 2.8.84 2.6.9 2.4.94 2.23 1 2.1 1 1.96 1.08 1.85 1.1 1.74 1.15 1.65 1.2 1.57 1.22 1.5 1.27 1.4 1.33 1.36 1.38 1.3 1.43 1.23 1.5 1.2 1.57 1.12 1.64 1.1 1.73 1.03 1.8 1 1.9.94 2.03.9 2.14.85 2.28.8 2.44.73 2.62.67 2.8.6 3.04.5 3.3.42 3.6.3 3.9.16h4.32l4.76-.2 5.27-.45 5.87-.74 6.55-1.1 7.35-1.57 8.27-2.14 9.32-2.82 10.5-3.66 11.8-4.68 13.22-5.9 14.65-7.28 16.04-8.83 17.23-10.44 18.04-12 18.4-13.36 18.18-14.42 17.44-15.05 16.25-15.27 14.8-15.12 13.22-14.66 11.6-14 10.06-13.26 8.64-12.43 7.4-11.64 6.25-10.84 5.3-10.1 4.43-9.43 3.7-8.82 3.07-8.25 2.52-7.74 2.03-7.3 1.62-6.87 1.23-6.5.9-6.2.63-5.88.36-5.63.08-3.9" stroke="#282c33" stroke-width="3" stroke-linejoin="round" fill="none"/><path d="M694.63 1453.02l8.52 12.35-14.95 1.2z" stroke="#282c33" stroke-width="3" fill="#282c33"/><path d="M1074.78 1215.2l-2.95-.07.03-1.5h2.95z" stroke="#282c33" stroke-width=".05" fill="#282c33"/><path d="M1418 1230.97l-.44 1.94-.84 3-.95 2.94-1.1 2.92-1.2 2.9-1.36 2.87-1.5 2.87-1.64 2.86-1.82 2.87-2 2.87-2.2 2.9-2.4 2.9-2.64 2.93-2.9 2.96-3.2 2.98-3.5 3.02-3.85 3.06-4.25 3.08-4.68 3.12-5.18 3.13-5.73 3.14-6.32 3.14-7 3.1-7.73 3.07-8.52 2.96-9.34 2.83-10.2 2.6-11.06 2.36-11.86 2-12.56 1.58-13.12 1.1-13.48.56h-13.6l-13.47-.57-13.12-1.1-12.56-1.58-11.85-2.02-11.05-2.34-10.2-2.62-9.34-2.82-8.52-2.96-7.7-3.06-7-3.1-6.34-3.15-5.73-3.15-5.18-3.13-4.68-3.12-4.25-3.08-3.86-3.06-3.5-3.03-3.18-3-2.9-2.95-2.64-2.93-2.4-2.9-2.2-2.9-2-2.88-1.82-2.87-1.65-2.86-1.5-2.88-1.36-2.88-1.2-2.9-1.1-2.9-.94-2.95-.84-3-.7-3.04-.6-3.1-.47-3.15-.34-3.22-.2-3.33-.04-1.93" stroke="#282c33" stroke-width="3" stroke-linejoin="round" fill="none"/><path d="M1419.62 1216.6l6 13.75-14.9-1.66z" stroke="#282c33" stroke-width="3" fill="#282c33"/><path d="M1074.84 1215.13l-2.95.06-.04-1.58h2.95z" stroke="#282c33" stroke-width=".05" fill="#282c33"/><path d="M892.7 1467a6 6 0 0 1 6-6h142.6a6 6 0 0 1 6 6v37.9a6 6 0 0 1-6 6H898.7a6 6 0 0 1-6-6z" fill="none"/><use xlink:href="#e" transform="matrix(1,0,0,1,897.6877450722291,1466) translate(0.1944444444444713 32.80555555555556)"/><path d="M1169.02 1340.38a6 6 0 0 1 6-6h141.3a6 6 0 0 1 6 6v37.9a6 6 0 0 1-6 6H1175a6 6 0 0 1-6-6z" fill="none"/><use xlink:href="#f" transform="matrix(1,0,0,1,1174.0244771499927,1339.383888888889) translate(0.3611111111111427 32.80555555555556)"/><defs><path fill="#282c33" d="M521-275c40-33 108-24 108 34 0 49-75 103-210 183-80 47-247 72-323 10-66-54-95-101-82-218 12-106 41-136 91-224 55-96 145-209 240-278 32-23 68-33 107-33 86 2 108 61 107 158 0 55-15 82-44 82-55 1-25-116-79-110-132 15-229 223-291 334-48 86-31 226 81 218 122-9 217-92 295-156" id="g"/><path fill="#282c33" d="M21-302C-7-136 9 24 196-12c147-28 263-93 386-142 57-23 26-120-26-120-111 32-240 115-378 126-13 1-22-26-25-45 30-174 59-350 88-524 10-62-86-124-120-61-39 73-49 196-69 277-19 77-22 145-31 199" id="h"/><path fill="#282c33" d="M44-443c79-191 208-366 448-366 141 0 239 118 267 253 46 222-61 413-213 490-83 42-221 78-338 30-55-23-106-43-129-82-26-14-80-140-57-202 2-41 8-89 22-123zm103 115c1 136 75 191 208 191 130 0 180-50 241-135 38-53 55-111 55-169 0-109-73-236-179-227-143 12-260 151-311 271-9 24-14 47-14 69" id="i"/><path fill="#282c33" d="M106-737c41-53 131 12 108 86-42 139-71 285-71 455 0 88 72 66 143 48 49-12 128-35 183-63 38-19 36-69 44-119 17-114 31-247 31-354 0-57 26-85 79-85 37 0 55 27 55 81 0 190-34 397-59 573 4 31 20 93-13 105-8 10-30 7-65-8-16-20-33-38-51-54C397-48 305 0 205 0 79 0 5-43 13-176c13-196 50-391 93-561" id="j"/><path fill="#282c33" d="M19-91c0-222 71-428 58-668-3-62 121-44 170-33 118 27 229 50 293 128 44 53 63 97 63 217 0 165-189 328-383 400-36 13-62 45-108 45-66 0-93-23-93-89zm185-582c-30 151-43 322-58 489 5 39 27 28 60 14 129-54 276-147 276-304 0-155-106-203-278-199" id="k"/><g id="a"><use transform="matrix(0.02777777777777777,0,0,0.02777777777777777,0,0)" xlink:href="#g"/><use transform="matrix(0.02777777777777777,0,0,0.02777777777777777,17.611111111111107,0)" xlink:href="#h"/><use transform="matrix(0.02777777777777777,0,0,0.02777777777777777,34.694444444444436,0)" xlink:href="#i"/><use transform="matrix(0.02777777777777777,0,0,0.02777777777777777,56.999999999999986,0)" xlink:href="#j"/><use transform="matrix(0.02777777777777777,0,0,0.02777777777777777,76.52777777777776,0)" xlink:href="#k"/></g><path fill="#282c33" d="M608-642l-20 77c-36 56-69 94-113 138-49 48-58 40-29 81 33 46 69 89 97 147 44 89 52 141 40 147-3 38-20 49-63 52-68 5-97-106-129-160-40-68-56-162-144-164-53-1-27 78-45 121-7 56-12 123-28 170C157-4 113 24 66-1 46-11 40-39 49-87c19-111 19-139 19-313 0-144 1-187-40-242-27-37-13-94 26-108 103-36 250-59 389-41 63 8 182 85 165 149zm-140 11c-10-39-42-58-96-57-53 12-154 21-179 43-5 9-8 31-8 65 0 151 19 135 127 94 94-36 148-79 156-145" id="l"/><path fill="#282c33" d="M330-158c82-22 193-18 286-31 38 11 58 81 24 113-25 24-71 25-116 25-135 0-238 34-358 47C61 7 4-52 15-159c12-113 37-213 32-340-2-59 2-121-2-178-2-44 35-62 81-61 104-31 222-52 345-64 68-7 103 34 111 94 2 12-3 22-9 31-33 14-62 15-103 16-100 2-196 10-270 40h-8c-18 23-11 79-15 106-1 13 5 22 16 25 82-10 176-25 264-12 44 7 78 26 71 72-7 49-76 30-125 30-78 0-138 22-210 29-24 1-35 28-36 52-2 41-10 83-8 126-19 84 122 51 181 35" id="m"/><path fill="#282c33" d="M371-533c189 0 256 55 239 237-9 91-67 138-157 205C374-33 301-7 236-7 155-7 13-82 18-160c3-44 62-73 96-38 43 44 152 73 218 29 77-51 166-125 156-169 2-44-67-63-119-62-47 1-108 1-155 3C87-393 13-429 1-531c11-87 101-150 165-187 90-52 160-96 290-87 34 2 118 78 115 115-3 35-23 38-55 45-15 4-26-4-33-24-37-64-116-1-164 12-41 11-154 77-154 113 0 15 14 22 41 22 45 0 127-11 165-11" id="n"/><path fill="#282c33" d="M521-275c40-33 108-24 108 34 0 49-75 103-210 183-80 47-247 72-323 10-66-54-95-101-82-218 12-106 41-136 91-224 55-96 145-209 240-278 32-23 68-33 107-33 86 2 108 61 107 158 0 55-15 82-44 82-55 1-25-116-79-110-132 15-229 223-291 334-48 86-31 226 81 218 122-9 217-92 295-156" id="o"/><g id="b"><use transform="matrix(0.02777777777777777,0,0,0.02777777777777777,0,0)" xlink:href="#l"/><use transform="matrix(0.02777777777777777,0,0,0.02777777777777777,17.16666666666666,0)" xlink:href="#m"/><use transform="matrix(0.02777777777777777,0,0,0.02777777777777777,35.66666666666666,0)" xlink:href="#n"/><use transform="matrix(0.02777777777777777,0,0,0.02777777777777777,53.19444444444443,0)" xlink:href="#i"/><use transform="matrix(0.02777777777777777,0,0,0.02777777777777777,75.49999999999997,0)" xlink:href="#j"/><use transform="matrix(0.02777777777777777,0,0,0.02777777777777777,95.02777777777774,0)" xlink:href="#l"/><use transform="matrix(0.02777777777777777,0,0,0.02777777777777777,112.1944444444444,0)" xlink:href="#o"/><use transform="matrix(0.02777777777777777,0,0,0.02777777777777777,129.80555555555551,0)" xlink:href="#m"/><use transform="matrix(0.02777777777777777,0,0,0.02777777777777777,148.30555555555551,0)" xlink:href="#n"/></g><path fill="#282c33" d="M103-24C79 10-2-14 8-59c42-186 129-353 193-524 23-62 63-135 99-197 39-38 106-10 109 47 27 100 51 209 81 307 8 25 72 24 72 63 0 44-26 46-37 75 12 83 46 156 55 243 7 63-106 47-114 11-13-58-36-170-57-231-3-4-7-8-9-14-69 4-134 40-198 52-53 21-53 108-81 160-4 16-8 29-18 43zm215-551c-16 18-92 195-73 208 46 2 100-12 123-31-5-30-32-162-38-171-2-3-6-5-12-6" id="p"/><path fill="#282c33" d="M24-128c0-158-18-313-5-472 6-74-11-192 62-191 78 1 88 68 113 130 59 143 102 191 174 297 50 73 81 109 92 109 8 0 12-3 13-9 24-163 3-322-12-477-6-63 62-76 101-37 65 64 45 212 54 340 10 141 7 304-15 413-8 15-20 23-37 23-76 0-203-132-244-200-33-54-79-109-116-169l4 4c-9-20-41-55-54-51-14 102-5 244 6 344 3 30-15 69-41 68-9 0-28-1-56-3-44-28-39-45-39-119" id="q"/><path fill="#282c33" d="M192-85c-3 48 46 100 89 72 52-75 73-232 102-321 46-139 146-233 278-374 22-37 2-105-46-93-81 20-199 174-252 246-53 73-46 65-110 7-63-57-96-136-132-220-11-25-31-37-54-37-36-1-56 32-56 68 32 142 118 264 224 332 15 16 24 24 21 38" id="r"/><path fill="#282c33" d="M3-81C3-44 54-2 90-8c84-15 229-66 336-66 66 0 138-5 200-16 15-7 26-21 25-46 0-56-22-86-66-81l-355 42c-45-14 13-69 26-93 78-144 236-280 334-415 19-26 27-45 27-56-4-55-57-67-130-64-142 6-306 4-411 45-29 11-41 39-41 70 0 43 17 64 50 64 66-16 156-53 230-57 24-1 92-12 93 11 0 9-27 41-80 96C228-469 138-318 58-193 23-137 3-101 3-81" id="s"/><g id="c"><use transform="matrix(0.02777777777777777,0,0,0.02777777777777777,0,0)" xlink:href="#p"/><use transform="matrix(0.02777777777777777,0,0,0.02777777777777777,16.30555555555555,0)" xlink:href="#q"/><use transform="matrix(0.02777777777777777,0,0,0.02777777777777777,34.1111111111111,0)" xlink:href="#p"/><use transform="matrix(0.02777777777777777,0,0,0.02777777777777777,50.41666666666665,0)" xlink:href="#h"/><use transform="matrix(0.02777777777777777,0,0,0.02777777777777777,67.49999999999997,0)" xlink:href="#r"/><use transform="matrix(0.02777777777777777,0,0,0.02777777777777777,86.19444444444441,0)" xlink:href="#s"/><use transform="matrix(0.02777777777777777,0,0,0.02777777777777777,104.74999999999997,0)" xlink:href="#m"/><use transform="matrix(0.02777777777777777,0,0,0.02777777777777777,123.24999999999996,0)" xlink:href="#l"/></g><g id="d"><use transform="matrix(0.02777777777777777,0,0,0.02777777777777777,0,0)" xlink:href="#l"/><use transform="matrix(0.02777777777777777,0,0,0.02777777777777777,17.16666666666666,0)" xlink:href="#j"/><use transform="matrix(0.02777777777777777,0,0,0.02777777777777777,36.69444444444443,0)" xlink:href="#h"/><use transform="matrix(0.02777777777777777,0,0,0.02777777777777777,53.77777777777776,0)" xlink:href="#m"/><use transform="matrix(0.02777777777777777,0,0,0.02777777777777777,72.27777777777774,0)" xlink:href="#n"/></g><path fill="#282c33" d="M292-638c-67 2-113 14-176 21-81 9-112-68-58-103 132-46 304-52 470-66l65 5c50 52 43 111-50 111-45 0-75 15-112 18-18 16-19 83-24 152-7 108-21 214-33 322-5 46 36 20 67 20 54 0 81-10 139-16 43 25 50 62 23 110-151 29-311 50-490 79C58 24-8 22 3-44c14-83 161-45 224-90 22-16 24-69 29-107 17-126 33-258 36-397" id="t"/><path fill="#282c33" d="M109-735c-25-57-110-11-99 37 30 130 91 291 122 410 18 69 44 132 72 190 44 90 75 116 148 73 102-105 149-290 208-441 32-82 48-168 48-261 0-51-15-77-46-77-38 0-59 34-73 100-35 160-89 312-149 454-40 95-58 66-91-37-28-90-54-179-79-263-24-79-42-141-61-185" id="u"/><g id="e"><use transform="matrix(0.02777777777777777,0,0,0.02777777777777777,0,0)" xlink:href="#k"/><use transform="matrix(0.02777777777777777,0,0,0.02777777777777777,16.77777777777777,0)" xlink:href="#t"/><use transform="matrix(0.02777777777777777,0,0,0.02777777777777777,34.41666666666666,0)" xlink:href="#n"/><use transform="matrix(0.02777777777777777,0,0,0.02777777777777777,51.94444444444443,0)" xlink:href="#o"/><use transform="matrix(0.02777777777777777,0,0,0.02777777777777777,69.55555555555554,0)" xlink:href="#i"/><use transform="matrix(0.02777777777777777,0,0,0.02777777777777777,91.86111111111109,0)" xlink:href="#u"/><use transform="matrix(0.02777777777777777,0,0,0.02777777777777777,108.94444444444441,0)" xlink:href="#m"/><use transform="matrix(0.02777777777777777,0,0,0.02777777777777777,127.4444444444444,0)" xlink:href="#l"/></g><path fill="#282c33" d="M593-790c58 0 99 54 77 117-5 13-15 16-35 14-70-7-152-3-229 7-31 20-24 81-26 127-4 138-16 277-16 422 0 32 4 70-21 83-26 36-88 7-103-20 1-182 10-346 21-521 2-27 11-81-18-84-73-7-138 11-206 3-20-18-39-18-32-51-3-78 74-91 145-91 129 0 251 6 369-8 25-3 49 2 74 2" id="v"/><g id="f"><use transform="matrix(0.02777777777777777,0,0,0.02777777777777777,0,0)" xlink:href="#m"/><use transform="matrix(0.02777777777777777,0,0,0.02777777777777777,18.499999999999993,0)" xlink:href="#u"/><use transform="matrix(0.02777777777777777,0,0,0.02777777777777777,35.58333333333332,0)" xlink:href="#p"/><use transform="matrix(0.02777777777777777,0,0,0.02777777777777777,51.88888888888887,0)" xlink:href="#h"/><use transform="matrix(0.02777777777777777,0,0,0.02777777777777777,68.9722222222222,0)" xlink:href="#j"/><use transform="matrix(0.02777777777777777,0,0,0.02777777777777777,88.49999999999997,0)" xlink:href="#p"/><use transform="matrix(0.02777777777777777,0,0,0.02777777777777777,104.80555555555551,0)" xlink:href="#v"/><use transform="matrix(0.02777777777777777,0,0,0.02777777777777777,124.77777777777774,0)" xlink:href="#m"/></g></defs></g></svg>