<svg xmlns="http://www.w3.org/2000/svg" xmlns:xlink="http://www.w3.org/1999/xlink" xmlns:lucid="lucid" width="960.57" height="594"><g transform="translate(-375.9480657553921 -589.5530916034356)" lucid:page-tab-id="MirQ1I1dSlpI"><path d="M377.45 597.05a6 6 0 0 1 6-6h246.58a6 6 0 0 1 6 6V784.8a6 6 0 0 1-6 6H383.45a6 6 0 0 1-6-6z" stroke="#282c33" stroke-width="3" fill-opacity="0"/><use xlink:href="#a" transform="matrix(1,0,0,1,382.4480657553921,596.0530916034356) translate(51.94444444444447 107.7109375)"/><path d="M1302.7 770.82c0 11.03-43.42 19.97-96.97 19.97-53.56 0-96.97-8.95-96.97-19.98v-159.8c0-11.02 43.4-19.97 96.97-19.97 53.55 0 96.97 8.95 96.97 19.98z" stroke="#282c33" stroke-width="3" fill-opacity="0"/><path d="M1302.7 611.03c0 11.03-43.42 19.97-96.97 19.97-53.56 0-96.97-8.94-96.97-19.97" stroke="#282c33" stroke-width="3" fill="none"/><use xlink:href="#b" transform="matrix(1,0,0,1,1113.7605870850596,636.0007424373707) translate(25.555555555555586 87.828125)"/><path d="M976.68 690.92h113.1" stroke="#282c33" stroke-width="3" stroke-linejoin="round" fill="none"/><path d="M962.2 690.92l12.98-7.5v15zM1104.26 690.92l-13 7.5v-15z" stroke="#282c33" stroke-width="3" fill="#282c33"/><path d="M787.1 642.4a6 6 0 0 1 6-6h158.6a6 6 0 0 1 6 6v97.06a6 6 0 0 1-6 6H793.1a6 6 0 0 1-6-6z" stroke="#282c33" stroke-width="3" fill-opacity="0"/><use xlink:href="#c" transform="matrix(1,0,0,1,799.1043264202259,648.3864249367689) translate(48.69444444444445 55.92968749999999)"/><path d="M655.02 690.92h113.1" stroke="#282c33" stroke-width="3" stroke-linejoin="round" fill="none"/><path d="M640.53 690.92l13-7.5v15zM782.6 690.92l-13 7.5v-15z" stroke="#282c33" stroke-width="3" fill="#282c33"/><path d="M1076.44 903.46a6 6 0 0 1 6-6h246.58a6 6 0 0 1 6 6v187.74a6 6 0 0 1-6 6h-246.58a6 6 0 0 1-6-6z" stroke="#282c33" stroke-width="3" fill-opacity="0"/><use xlink:href="#d" transform="matrix(1,0,0,1,1088.4376597535593,909.4642062484959) translate(45.69444444444447 100.8125)"/><path d="M377.45 903.46a6 6 0 0 1 6-6h246.58a6 6 0 0 1 6 6v187.74a6 6 0 0 1-6 6H383.45a6 6 0 0 1-6-6z" stroke="#282c33" stroke-width="3" fill-opacity="0"/><use xlink:href="#e" transform="matrix(1,0,0,1,389.4480657553921,909.4642062484959) translate(51.93055555555557 80.875)"/><use xlink:href="#f" transform="matrix(1,0,0,1,389.4480657553921,909.4642062484959) translate(23.958333333333357 120.76388888888889)"/><path d="M872.43 748.46l.26 12.6.87 13.98 1.45 13.77 2 13.48 2.5 13.1 2.96 12.7 3.4 12.22 3.8 11.7 4.16 11.17 4.46 10.6 4.73 10.06 4.96 9.5 5.15 8.93 5.33 8.4 5.48 7.9 5.6 7.38 5.73 6.9 5.8 6.47 5.9 6.04 6 5.62 6.05 5.23 6.14 4.86 6.2 4.5 6.3 4.2 6.36 3.85 6.46 3.56 6.56 3.25 6.66 2.98 6.77 2.68 6.92 2.4 7.04 2.13 7.2 1.84 7.38 1.57 7.56 1.3 7.8.97 3.07.26" stroke="#282c33" stroke-width="3" stroke-linejoin="round" fill="none"/><path d="M873.9 748.47l-2.95.06-.03-1.57h2.95z" stroke="#282c33" stroke-width=".05" fill="#282c33"/><path d="M1071.94 997.2l-13.32 6.9.7-15z" stroke="#282c33" stroke-width="3" fill="#282c33"/><path d="M1205.73 894.46v-84.68" stroke="#282c33" stroke-width="3" stroke-linejoin="round" fill="none"/><path d="M1207.2 895.96h-2.95v-1.54h2.95z" stroke="#282c33" stroke-width=".05" fill="#282c33"/><path d="M1205.73 795.3l7.5 12.98h-15z" stroke="#282c33" stroke-width="3" fill="#282c33"/><path d="M872.37 748.46l-.23 10.56-.74 11.88-1.23 11.7-1.7 11.47-2.14 11.26-2.6 11.03-3 10.78-3.42 10.52-3.8 10.24-4.18 9.95-4.54 9.66-4.88 9.35-5.2 9.02-5.53 8.7-5.8 8.34-6.08 8.02-6.35 7.67-6.6 7.3-6.8 6.96-7.03 6.6-7.24 6.25-7.44 5.9-7.63 5.55-7.8 5.2-7.98 4.82-8.16 4.5-8.33 4.12-8.5 3.77-8.66 3.43-8.84 3.08-9 2.72-9.2 2.36-9.4 2-9.57 1.62-9.8 1.23-7.96.68" stroke="#282c33" stroke-width="3" stroke-linejoin="round" fill="none"/><path d="M873.84 748.53l-2.95-.06.02-1.5h2.95z" stroke="#282c33" stroke-width=".05" fill="#282c33"/><path d="M640.53 997.22l12.7-7.98.56 15z" stroke="#282c33" stroke-width="3" fill="#282c33"/><path d="M636.9 1097l12.05 9.9 13.22 9.94 13.2 9.1 13.2 8.28 13.14 7.5 13.14 6.8 13.1 6.1 13.07 5.42 13.06 4.78 13 4.17 13 3.55 12.97 2.98 12.94 2.4 12.93 1.86 12.92 1.3 12.9.74 12.92.2 12.9-.32 12.92-.87 12.92-1.42 12.94-1.97 12.95-2.53 12.97-3.1 13-3.7 13-4.3 13.06-4.92 13.08-5.56 13.1-6.24 13.14-6.94 13.16-7.68 13.2-8.46 13.2-9.27 10-7.66" stroke="#282c33" stroke-width="3" stroke-linejoin="round" fill="none"/><path d="M637.85 1095.9l-1.87 2.28-1.32-1.1.68-.57.76-.9.47-.75z" stroke="#282c33" stroke-width=".05" fill="#282c33"/><path d="M1074.42 1097.95l-5.35 14-9.46-11.63z" stroke="#282c33" stroke-width="3" fill="#282c33"/><defs><path fill="#282c33" d="M39-49c-7-93 9-204-6-289-18-30-12-41 1-77 37-27 19-97 25-162 2-23-27-37-49-40-11-18-14-56 0-71 17-39 273-99 376-109 72-7 163-32 165 45 1 65-62 51-115 66-63 18-176 24-229 55-41 23-20 107-25 176 83-2 166-25 259-33 74-6 91 70 44 97-80 23-228 35-304 57-18 6-27 18-27 35-9 45 6 274-42 299-35 2-92-5-73-49" id="g"/><path fill="#282c33" d="M608-642l-20 77c-36 56-69 94-113 138-49 48-58 40-29 81 33 46 69 89 97 147 44 89 52 141 40 147-3 38-20 49-63 52-68 5-97-106-129-160-40-68-56-162-144-164-53-1-27 78-45 121-7 56-12 123-28 170C157-4 113 24 66-1 46-11 40-39 49-87c19-111 19-139 19-313 0-144 1-187-40-242-27-37-13-94 26-108 103-36 250-59 389-41 63 8 182 85 165 149zm-140 11c-10-39-42-58-96-57-53 12-154 21-179 43-5 9-8 31-8 65 0 151 19 135 127 94 94-36 148-79 156-145" id="h"/><path fill="#282c33" d="M44-443c79-191 208-366 448-366 141 0 239 118 267 253 46 222-61 413-213 490-83 42-221 78-338 30-55-23-106-43-129-82-26-14-80-140-57-202 2-41 8-89 22-123zm103 115c1 136 75 191 208 191 130 0 180-50 241-135 38-53 55-111 55-169 0-109-73-236-179-227-143 12-260 151-311 271-9 24-14 47-14 69" id="i"/><path fill="#282c33" d="M24-128c0-158-18-313-5-472 6-74-11-192 62-191 78 1 88 68 113 130 59 143 102 191 174 297 50 73 81 109 92 109 8 0 12-3 13-9 24-163 3-322-12-477-6-63 62-76 101-37 65 64 45 212 54 340 10 141 7 304-15 413-8 15-20 23-37 23-76 0-203-132-244-200-33-54-79-109-116-169l4 4c-9-20-41-55-54-51-14 102-5 244 6 344 3 30-15 69-41 68-9 0-28-1-56-3-44-28-39-45-39-119" id="j"/><path fill="#282c33" d="M382-556c-3 158-18 304-18 470 0 31 6 72-21 86-20 35-87 21-104-6-1-188 14-367 23-549 1-24 13-80-17-80-77 0-131 31-210 31-15-10-43-18-33-45 0-82 83-94 148-109 103-23 215-12 315-40 43-12 91-17 142-23 62-8 95 53 77 116-8 28-47 14-75 18-68 9-134 10-195 30-32 11-31 60-32 101" id="k"/><path fill="#282c33" d="M330-158c82-22 193-18 286-31 38 11 58 81 24 113-25 24-71 25-116 25-135 0-238 34-358 47C61 7 4-52 15-159c12-113 37-213 32-340-2-59 2-121-2-178-2-44 35-62 81-61 104-31 222-52 345-64 68-7 103 34 111 94 2 12-3 22-9 31-33 14-62 15-103 16-100 2-196 10-270 40h-8c-18 23-11 79-15 106-1 13 5 22 16 25 82-10 176-25 264-12 44 7 78 26 71 72-7 49-76 30-125 30-78 0-138 22-210 29-24 1-35 28-36 52-2 41-10 83-8 126-19 84 122 51 181 35" id="l"/><path fill="#282c33" d="M19-91c0-222 71-428 58-668-3-62 121-44 170-33 118 27 229 50 293 128 44 53 63 97 63 217 0 165-189 328-383 400-36 13-62 45-108 45-66 0-93-23-93-89zm185-582c-30 151-43 322-58 489 5 39 27 28 60 14 129-54 276-147 276-304 0-155-106-203-278-199" id="m"/><g id="a"><use transform="matrix(0.02777777777777777,0,0,0.02777777777777777,0,0)" xlink:href="#g"/><use transform="matrix(0.02777777777777777,0,0,0.02777777777777777,16.472222222222218,0)" xlink:href="#h"/><use transform="matrix(0.02777777777777777,0,0,0.02777777777777777,32.55555555555554,0)" xlink:href="#i"/><use transform="matrix(0.02777777777777777,0,0,0.02777777777777777,55.805555555555536,0)" xlink:href="#j"/><use transform="matrix(0.02777777777777777,0,0,0.02777777777777777,72.9722222222222,0)" xlink:href="#k"/><use transform="matrix(0.02777777777777777,0,0,0.02777777777777777,92.02777777777774,0)" xlink:href="#l"/><use transform="matrix(0.02777777777777777,0,0,0.02777777777777777,110.52777777777774,0)" xlink:href="#j"/><use transform="matrix(0.02777777777777777,0,0,0.02777777777777777,128.3333333333333,0)" xlink:href="#m"/></g><path fill="#282c33" d="M371-533c189 0 256 55 239 237-9 91-67 138-157 205C374-33 301-7 236-7 155-7 13-82 18-160c3-44 62-73 96-38 43 44 152 73 218 29 77-51 166-125 156-169 2-44-67-63-119-62-47 1-108 1-155 3C87-393 13-429 1-531c11-87 101-150 165-187 90-52 160-96 290-87 34 2 118 78 115 115-3 35-23 38-55 45-15 4-26-4-33-24-37-64-116-1-164 12-41 11-154 77-154 113 0 15 14 22 41 22 45 0 127-11 165-11" id="n"/><path fill="#282c33" d="M593-790c58 0 99 54 77 117-5 13-15 16-35 14-70-7-152-3-229 7-31 20-24 81-26 127-4 138-16 277-16 422 0 32 4 70-21 83-26 36-88 7-103-20 1-182 10-346 21-521 2-27 11-81-18-84-73-7-138 11-206 3-20-18-39-18-32-51-3-78 74-91 145-91 129 0 251 6 369-8 25-3 49 2 74 2" id="o"/><path fill="#282c33" d="M44-443c79-191 208-366 448-366 141 0 239 118 267 253 46 222-61 413-213 490-83 42-221 78-338 30-55-23-106-43-129-82-26-14-80-140-57-202 2-41 8-89 22-123zm103 115c1 136 75 191 208 191 130 0 180-50 241-135 38-53 55-111 55-169 0-109-73-236-179-227-143 12-260 151-311 271-9 24-14 47-14 69" id="p"/><path fill="#282c33" d="M608-642l-20 77c-36 56-69 94-113 138-49 48-58 40-29 81 33 46 69 89 97 147 44 89 52 141 40 147-3 38-20 49-63 52-68 5-97-106-129-160-40-68-56-162-144-164-53-1-27 78-45 121-7 56-12 123-28 170C157-4 113 24 66-1 46-11 40-39 49-87c19-111 19-139 19-313 0-144 1-187-40-242-27-37-13-94 26-108 103-36 250-59 389-41 63 8 182 85 165 149zm-140 11c-10-39-42-58-96-57-53 12-154 21-179 43-5 9-8 31-8 65 0 151 19 135 127 94 94-36 148-79 156-145" id="q"/><path fill="#282c33" d="M103-24C79 10-2-14 8-59c42-186 129-353 193-524 23-62 63-135 99-197 39-38 106-10 109 47 27 100 51 209 81 307 8 25 72 24 72 63 0 44-26 46-37 75 12 83 46 156 55 243 7 63-106 47-114 11-13-58-36-170-57-231-3-4-7-8-9-14-69 4-134 40-198 52-53 21-53 108-81 160-4 16-8 29-18 43zm215-551c-16 18-92 195-73 208 46 2 100-12 123-31-5-30-32-162-38-171-2-3-6-5-12-6" id="r"/><path fill="#282c33" d="M590-683c0-95-64-132-148-103-62 21-113 58-161 92-97 69-165 165-223 275C-45-222 51 11 277-12c154-16 257-81 343-160 63-58 100-126 109-243 12-155-158-93-246-67-61 18-178 69-168 115-2 30 28 68 54 64 69-10 133-52 201-67 9-2 20 9 20 17 0 11-18 38-57 79-85 91-188 136-306 136-55 0-99-68-99-127 0-30 16-69 37-123 25-64 237-288 318-281 25-8 66 40 79 44 19 0 28-19 28-58" id="s"/><path fill="#282c33" d="M330-158c82-22 193-18 286-31 38 11 58 81 24 113-25 24-71 25-116 25-135 0-238 34-358 47C61 7 4-52 15-159c12-113 37-213 32-340-2-59 2-121-2-178-2-44 35-62 81-61 104-31 222-52 345-64 68-7 103 34 111 94 2 12-3 22-9 31-33 14-62 15-103 16-100 2-196 10-270 40h-8c-18 23-11 79-15 106-1 13 5 22 16 25 82-10 176-25 264-12 44 7 78 26 71 72-7 49-76 30-125 30-78 0-138 22-210 29-24 1-35 28-36 52-2 41-10 83-8 126-19 84 122 51 181 35" id="t"/><g id="b"><use transform="matrix(0.02777777777777777,0,0,0.02777777777777777,0,0)" xlink:href="#n"/><use transform="matrix(0.02777777777777777,0,0,0.02777777777777777,17.52777777777777,0)" xlink:href="#o"/><use transform="matrix(0.02777777777777777,0,0,0.02777777777777777,37.499999999999986,0)" xlink:href="#p"/><use transform="matrix(0.02777777777777777,0,0,0.02777777777777777,59.805555555555536,0)" xlink:href="#q"/><use transform="matrix(0.02777777777777777,0,0,0.02777777777777777,76.9722222222222,0)" xlink:href="#r"/><use transform="matrix(0.02777777777777777,0,0,0.02777777777777777,93.27777777777774,0)" xlink:href="#s"/><use transform="matrix(0.02777777777777777,0,0,0.02777777777777777,114.38888888888886,0)" xlink:href="#t"/></g><path fill="#282c33" d="M23-677c-68-88 127-122 212-122 113 0 253 24 291 82 92 144-48 310-153 365-52 27-102 48-161 69-56 20-53 15-58 80-4 49-8 103-13 153-3 31-19 46-43 46-44 0-65-28-63-81 5-162 8-330 16-486 3-53-4-75-28-106zm415 73c0-44-44-66-132-66-78 0-124 8-135 26-10 16-14 89-14 218 0 44 22 39 57 25 83-34 224-115 224-203" id="u"/><path fill="#282c33" d="M292-638c-67 2-113 14-176 21-81 9-112-68-58-103 132-46 304-52 470-66l65 5c50 52 43 111-50 111-45 0-75 15-112 18-18 16-19 83-24 152-7 108-21 214-33 322-5 46 36 20 67 20 54 0 81-10 139-16 43 25 50 62 23 110-151 29-311 50-490 79C58 24-8 22 3-44c14-83 161-45 224-90 22-16 24-69 29-107 17-126 33-258 36-397" id="v"/><g id="c"><use transform="matrix(0.02777777777777777,0,0,0.02777777777777777,0,0)" xlink:href="#r"/><use transform="matrix(0.02777777777777777,0,0,0.02777777777777777,16.30555555555555,0)" xlink:href="#u"/><use transform="matrix(0.02777777777777777,0,0,0.02777777777777777,31.97222222222221,0)" xlink:href="#v"/></g><path fill="#282c33" d="M521-275c40-33 108-24 108 34 0 49-75 103-210 183-80 47-247 72-323 10-66-54-95-101-82-218 12-106 41-136 91-224 55-96 145-209 240-278 32-23 68-33 107-33 86 2 108 61 107 158 0 55-15 82-44 82-55 1-25-116-79-110-132 15-229 223-291 334-48 86-31 226 81 218 122-9 217-92 295-156" id="w"/><path fill="#282c33" d="M24-128c0-158-18-313-5-472 6-74-11-192 62-191 78 1 88 68 113 130 59 143 102 191 174 297 50 73 81 109 92 109 8 0 12-3 13-9 24-163 3-322-12-477-6-63 62-76 101-37 65 64 45 212 54 340 10 141 7 304-15 413-8 15-20 23-37 23-76 0-203-132-244-200-33-54-79-109-116-169l4 4c-9-20-41-55-54-51-14 102-5 244 6 344 3 30-15 69-41 68-9 0-28-1-56-3-44-28-39-45-39-119" id="x"/><g id="d"><use transform="matrix(0.02777777777777777,0,0,0.02777777777777777,0,0)" xlink:href="#n"/><use transform="matrix(0.02777777777777777,0,0,0.02777777777777777,17.52777777777777,0)" xlink:href="#w"/><use transform="matrix(0.02777777777777777,0,0,0.02777777777777777,35.13888888888888,0)" xlink:href="#r"/><use transform="matrix(0.02777777777777777,0,0,0.02777777777777777,51.44444444444443,0)" xlink:href="#x"/><use transform="matrix(0.02777777777777777,0,0,0.02777777777777777,69.24999999999997,0)" xlink:href="#x"/><use transform="matrix(0.02777777777777777,0,0,0.02777777777777777,87.05555555555551,0)" xlink:href="#v"/><use transform="matrix(0.02777777777777777,0,0,0.02777777777777777,104.6944444444444,0)" xlink:href="#x"/><use transform="matrix(0.02777777777777777,0,0,0.02777777777777777,122.49999999999994,0)" xlink:href="#s"/></g><path fill="#282c33" d="M106-737c41-53 131 12 108 86-42 139-71 285-71 455 0 88 72 66 143 48 49-12 128-35 183-63 38-19 36-69 44-119 17-114 31-247 31-354 0-57 26-85 79-85 37 0 55 27 55 81 0 190-34 397-59 573 4 31 20 93-13 105-8 10-30 7-65-8-16-20-33-38-51-54C397-48 305 0 205 0 79 0 5-43 13-176c13-196 50-391 93-561" id="y"/><g id="e"><use transform="matrix(0.02777777777777777,0,0,0.02777777777777777,0,0)" xlink:href="#r"/><use transform="matrix(0.02777777777777777,0,0,0.02777777777777777,16.30555555555555,0)" xlink:href="#w"/><use transform="matrix(0.02777777777777777,0,0,0.02777777777777777,33.91666666666666,0)" xlink:href="#w"/><use transform="matrix(0.02777777777777777,0,0,0.02777777777777777,51.527777777777764,0)" xlink:href="#p"/><use transform="matrix(0.02777777777777777,0,0,0.02777777777777777,73.83333333333331,0)" xlink:href="#y"/><use transform="matrix(0.02777777777777777,0,0,0.02777777777777777,93.36111111111109,0)" xlink:href="#x"/><use transform="matrix(0.02777777777777777,0,0,0.02777777777777777,111.16666666666663,0)" xlink:href="#o"/></g><path fill="#282c33" d="M68-174c-8-157-1-333-1-488 0-23-21-28-12-60 24-87 141-85 256-77 161 12 317 42 251 258-5 17-40 45-44 60 15 30 85 80 98 123 62 108 25 192-76 258C455-45 341-9 207-4 145-2 19-30 19-85c0-36 51-41 49-89zm137-510c-18 6-26 137-16 192 30 22 66 2 112-6 70-13 158-95 159-132 17-68-169-82-255-54zm-15 330c-15 57-2 155 5 215 6 4 6 12 18 11 101-5 211-32 267-82 52-46 58-91 12-140s-73-73-81-73c-39 14-121 48-173 54-15 2-34 14-48 15" id="z"/><path fill="#282c33" d="M19-91c0-222 71-428 58-668-3-62 121-44 170-33 118 27 229 50 293 128 44 53 63 97 63 217 0 165-189 328-383 400-36 13-62 45-108 45-66 0-93-23-93-89zm185-582c-30 151-43 322-58 489 5 39 27 28 60 14 129-54 276-147 276-304 0-155-106-203-278-199" id="A"/><g id="f"><use transform="matrix(0.02777777777777777,0,0,0.02777777777777777,0,0)" xlink:href="#p"/><use transform="matrix(0.02777777777777777,0,0,0.02777777777777777,22.30555555555555,0)" xlink:href="#x"/><use transform="matrix(0.02777777777777777,0,0,0.02777777777777777,40.1111111111111,0)" xlink:href="#z"/><use transform="matrix(0.02777777777777777,0,0,0.02777777777777777,57.97222222222221,0)" xlink:href="#p"/><use transform="matrix(0.02777777777777777,0,0,0.02777777777777777,80.27777777777776,0)" xlink:href="#r"/><use transform="matrix(0.02777777777777777,0,0,0.02777777777777777,96.58333333333331,0)" xlink:href="#q"/><use transform="matrix(0.02777777777777777,0,0,0.02777777777777777,113.74999999999997,0)" xlink:href="#A"/><use transform="matrix(0.02777777777777777,0,0,0.02777777777777777,130.52777777777774,0)" xlink:href="#v"/><use transform="matrix(0.02777777777777777,0,0,0.02777777777777777,148.16666666666663,0)" xlink:href="#x"/><use transform="matrix(0.02777777777777777,0,0,0.02777777777777777,165.97222222222217,0)" xlink:href="#s"/></g></defs></g></svg>