<svg xmlns="http://www.w3.org/2000/svg" xmlns:xlink="http://www.w3.org/1999/xlink" xmlns:lucid="lucid" width="1080.79" height="528.73"><g transform="translate(1746.1631952166563 -873.6842714015693)" lucid:page-tab-id="9QqRL1ur5ekR"><path d="M-1724.66 901.18a6 6 0 0 1 6-6h246.58a6 6 0 0 1 6 6v187.74a6 6 0 0 1-6 6h-246.58a6 6 0 0 1-6-6z" stroke="#e0e0e0" stroke-width="3" fill-opacity="0"/><use xlink:href="#a" transform="matrix(1,0,0,1,-1719.6631952166563,900.1842714015693) translate(71.5277777777778 109.9375)"/><path d="M-1498.4 1311.35c0 11.03-43.42 19.97-96.97 19.97-53.56 0-96.97-8.94-96.97-19.97v-159.8c0-11.02 43.4-19.97 96.97-19.97 53.55 0 96.97 8.95 96.97 19.98z" stroke="#e0e0e0" stroke-width="3" fill-opacity="0"/><path d="M-1498.4 1151.56c0 11.03-43.42 19.97-96.97 19.97-53.56 0-96.97-8.94-96.97-19.97" stroke="#e0e0e0" stroke-width="3" fill="none"/><use xlink:href="#b" transform="matrix(1,0,0,1,-1687.340267885156,1176.5298883905573) translate(25.555555555555586 89)"/><path d="M-945.46 901.18a6 6 0 0 1 6-6h246.6a6 6 0 0 1 6 6v187.74a6 6 0 0 1-6 6h-246.6a6 6 0 0 1-6-6z" stroke="#e0e0e0" stroke-width="3" fill-opacity="0"/><use xlink:href="#c" transform="matrix(1,0,0,1,-933.4552667091114,907.1842714015693) translate(47.291666666666686 98.75)"/><path d="M-1108.8 1074.95c0 11.03-43.4 19.97-96.97 19.97-53.55 0-96.97-8.94-96.97-19.97v-159.8c0-11.02 43.42-19.97 96.97-19.97 53.56 0 96.97 8.95 96.97 19.98z" stroke="#e0e0e0" stroke-width="3" fill-opacity="0"/><path d="M-1108.8 915.16c0 11.03-43.4 19.97-96.97 19.97-53.55 0-96.97-8.94-96.97-19.97" stroke="#e0e0e0" stroke-width="3" fill="none"/><use xlink:href="#d" transform="matrix(1,0,0,1,-1297.7363036313836,940.1319222355044) translate(54.86111111111112 89)"/><path d="M-1595.34 1334.33l.07 3.56.3 4.54.42 4.1.55 3.72.64 3.4.73 3.12.8 2.87.87 2.66.92 2.48.97 2.3 1 2.17 1.08 2.03 1.1 1.9 1.16 1.82 1.2 1.7 1.22 1.64 1.28 1.55 1.34 1.47 1.38 1.4 1.44 1.36 1.5 1.3 1.56 1.24 1.64 1.2 1.72 1.13 1.8 1.1 1.9 1.04 2 1 2.14.94 2.26.9 2.4.83 2.6.8 2.76.7 2.98.63 3.22.55 3.5.44 3.82.32 4.18.17h4.6l5.07-.2 5.63-.48 6.27-.8 7-1.18 7.87-1.68 8.83-2.27 9.95-3.02 11.2-3.9 12.55-4.98 14-6.24 15.43-7.67 16.78-9.24 17.86-10.83 18.55-12.33 18.7-13.6 18.36-14.55 17.46-15.07 16.18-15.2 14.66-14.96 13.04-14.47 11.43-13.8 9.9-13.06 8.53-12.26 7.3-11.47 6.17-10.7 5.24-10.02 4.4-9.34 3.68-8.74 3.06-8.2 2.52-7.74 2.03-7.28 1.62-6.88 1.24-6.54.93-6.22.63-5.93v-.05" stroke="#e0e0e0" stroke-width="3" stroke-linejoin="round" fill="none"/><path d="M-1595.38 1332.82l1.48-.02.04 1.53-2.95.07-.05-1.62z" stroke="#e0e0e0" stroke-width=".05" fill="#e0e0e0"/><path d="M-1205.9 1099.37l7.1 13.22-15.27-.66z" stroke="#e0e0e0" stroke-width="3" fill="#e0e0e0"/><path d="M-1205.74 1097.93l.05 2.35.25 3.74.38 3.64.52 3.55.67 3.48.8 3.4.94 3.37 1.07 3.32 1.22 3.28 1.37 3.25 1.52 3.23 1.7 3.23 1.85 3.2 2.03 3.24 2.25 3.23 2.47 3.25 2.7 3.27 2.97 3.3 3.26 3.32 3.58 3.36 3.93 3.4 4.33 3.43 4.77 3.46 5.27 3.5 5.83 3.53 6.43 3.53 7.12 3.53 7.87 3.5 8.7 3.45 9.56 3.33 10.5 3.17 11.47 2.94 12.42 2.62 13.32 2.25 14.1 1.8 14.76 1.22 15.15.62h15.3l15.14-.63 14.75-1.25 14.1-1.78 13.33-2.25 12.42-2.64 11.46-2.94 10.5-3.17 9.58-3.33 8.7-3.43 7.85-3.5 7.12-3.52 6.44-3.54 5.8-3.52 5.28-3.5 4.77-3.47 4.33-3.43 3.94-3.4 3.58-3.36 3.26-3.33 2.97-3.3 2.7-3.26 2.47-3.25 2.24-3.23 2.05-3.23 1.85-3.22 1.68-3.22 1.52-3.24 1.37-3.26 1.22-3.28 1.08-3.32.93-3.35.8-3.42.67-3.48.52-3.55v-.15" stroke="#e0e0e0" stroke-width="3" stroke-linejoin="round" fill="none"/><path d="M-1205.78 1096.42l1.5-.02.02 1.53-2.95.07-.04-1.6z" stroke="#e0e0e0" stroke-width=".05" fill="#e0e0e0"/><path d="M-816.34 1099.36l6.82 13.36-15.24-.94z" stroke="#e0e0e0" stroke-width="3" fill="#e0e0e0"/><defs><path fill="#e6e6e6" fill-opacity=".7" d="M371-533c189 0 256 55 239 237-9 91-67 138-157 205C374-33 301-7 236-7 155-7 13-82 18-160c3-44 62-73 96-38 43 44 152 73 218 29 77-51 166-125 156-169 2-44-67-63-119-62-47 1-108 1-155 3C87-393 13-429 1-531c11-87 101-150 165-187 90-52 160-96 290-87 34 2 118 78 115 115-3 35-23 38-55 45-15 4-26-4-33-24-37-64-116-1-164 12-41 11-154 77-154 113 0 15 14 22 41 22 45 0 127-11 165-11" id="e"/><path fill="#e6e6e6" fill-opacity=".7" d="M330-158c82-22 193-18 286-31 38 11 58 81 24 113-25 24-71 25-116 25-135 0-238 34-358 47C61 7 4-52 15-159c12-113 37-213 32-340-2-59 2-121-2-178-2-44 35-62 81-61 104-31 222-52 345-64 68-7 103 34 111 94 2 12-3 22-9 31-33 14-62 15-103 16-100 2-196 10-270 40h-8c-18 23-11 79-15 106-1 13 5 22 16 25 82-10 176-25 264-12 44 7 78 26 71 72-7 49-76 30-125 30-78 0-138 22-210 29-24 1-35 28-36 52-2 41-10 83-8 126-19 84 122 51 181 35" id="f"/><path fill="#e6e6e6" fill-opacity=".7" d="M608-642l-20 77c-36 56-69 94-113 138-49 48-58 40-29 81 33 46 69 89 97 147 44 89 52 141 40 147-3 38-20 49-63 52-68 5-97-106-129-160-40-68-56-162-144-164-53-1-27 78-45 121-7 56-12 123-28 170C157-4 113 24 66-1 46-11 40-39 49-87c19-111 19-139 19-313 0-144 1-187-40-242-27-37-13-94 26-108 103-36 250-59 389-41 63 8 182 85 165 149zm-140 11c-10-39-42-58-96-57-53 12-154 21-179 43-5 9-8 31-8 65 0 151 19 135 127 94 94-36 148-79 156-145" id="g"/><path fill="#e6e6e6" fill-opacity=".7" d="M109-735c-25-57-110-11-99 37 30 130 91 291 122 410 18 69 44 132 72 190 44 90 75 116 148 73 102-105 149-290 208-441 32-82 48-168 48-261 0-51-15-77-46-77-38 0-59 34-73 100-35 160-89 312-149 454-40 95-58 66-91-37-28-90-54-179-79-263-24-79-42-141-61-185" id="h"/><g id="a"><use transform="matrix(0.02777777777777777,0,0,0.02777777777777777,0,0)" xlink:href="#e"/><use transform="matrix(0.02777777777777777,0,0,0.02777777777777777,17.52777777777777,0)" xlink:href="#f"/><use transform="matrix(0.02777777777777777,0,0,0.02777777777777777,36.027777777777764,0)" xlink:href="#g"/><use transform="matrix(0.02777777777777777,0,0,0.02777777777777777,53.19444444444443,0)" xlink:href="#h"/><use transform="matrix(0.02777777777777777,0,0,0.02777777777777777,70.27777777777776,0)" xlink:href="#f"/><use transform="matrix(0.02777777777777777,0,0,0.02777777777777777,88.77777777777774,0)" xlink:href="#g"/></g><path fill="#e6e6e6" fill-opacity=".7" d="M371-533c189 0 256 55 239 237-9 91-67 138-157 205C374-33 301-7 236-7 155-7 13-82 18-160c3-44 62-73 96-38 43 44 152 73 218 29 77-51 166-125 156-169 2-44-67-63-119-62-47 1-108 1-155 3C87-393 13-429 1-531c11-87 101-150 165-187 90-52 160-96 290-87 34 2 118 78 115 115-3 35-23 38-55 45-15 4-26-4-33-24-37-64-116-1-164 12-41 11-154 77-154 113 0 15 14 22 41 22 45 0 127-11 165-11" id="i"/><path fill="#e6e6e6" fill-opacity=".7" d="M593-790c58 0 99 54 77 117-5 13-15 16-35 14-70-7-152-3-229 7-31 20-24 81-26 127-4 138-16 277-16 422 0 32 4 70-21 83-26 36-88 7-103-20 1-182 10-346 21-521 2-27 11-81-18-84-73-7-138 11-206 3-20-18-39-18-32-51-3-78 74-91 145-91 129 0 251 6 369-8 25-3 49 2 74 2" id="j"/><path fill="#e6e6e6" fill-opacity=".7" d="M44-443c79-191 208-366 448-366 141 0 239 118 267 253 46 222-61 413-213 490-83 42-221 78-338 30-55-23-106-43-129-82-26-14-80-140-57-202 2-41 8-89 22-123zm103 115c1 136 75 191 208 191 130 0 180-50 241-135 38-53 55-111 55-169 0-109-73-236-179-227-143 12-260 151-311 271-9 24-14 47-14 69" id="k"/><path fill="#e6e6e6" fill-opacity=".7" d="M103-24C79 10-2-14 8-59c42-186 129-353 193-524 23-62 63-135 99-197 39-38 106-10 109 47 27 100 51 209 81 307 8 25 72 24 72 63 0 44-26 46-37 75 12 83 46 156 55 243 7 63-106 47-114 11-13-58-36-170-57-231-3-4-7-8-9-14-69 4-134 40-198 52-53 21-53 108-81 160-4 16-8 29-18 43zm215-551c-16 18-92 195-73 208 46 2 100-12 123-31-5-30-32-162-38-171-2-3-6-5-12-6" id="l"/><path fill="#e6e6e6" fill-opacity=".7" d="M590-683c0-95-64-132-148-103-62 21-113 58-161 92-97 69-165 165-223 275C-45-222 51 11 277-12c154-16 257-81 343-160 63-58 100-126 109-243 12-155-158-93-246-67-61 18-178 69-168 115-2 30 28 68 54 64 69-10 133-52 201-67 9-2 20 9 20 17 0 11-18 38-57 79-85 91-188 136-306 136-55 0-99-68-99-127 0-30 16-69 37-123 25-64 237-288 318-281 25-8 66 40 79 44 19 0 28-19 28-58" id="m"/><g id="b"><use transform="matrix(0.02777777777777777,0,0,0.02777777777777777,0,0)" xlink:href="#i"/><use transform="matrix(0.02777777777777777,0,0,0.02777777777777777,17.52777777777777,0)" xlink:href="#j"/><use transform="matrix(0.02777777777777777,0,0,0.02777777777777777,37.499999999999986,0)" xlink:href="#k"/><use transform="matrix(0.02777777777777777,0,0,0.02777777777777777,59.805555555555536,0)" xlink:href="#g"/><use transform="matrix(0.02777777777777777,0,0,0.02777777777777777,76.9722222222222,0)" xlink:href="#l"/><use transform="matrix(0.02777777777777777,0,0,0.02777777777777777,93.27777777777774,0)" xlink:href="#m"/><use transform="matrix(0.02777777777777777,0,0,0.02777777777777777,114.38888888888886,0)" xlink:href="#f"/></g><path fill="#e6e6e6" fill-opacity=".7" d="M24-128c0-158-18-313-5-472 6-74-11-192 62-191 78 1 88 68 113 130 59 143 102 191 174 297 50 73 81 109 92 109 8 0 12-3 13-9 24-163 3-322-12-477-6-63 62-76 101-37 65 64 45 212 54 340 10 141 7 304-15 413-8 15-20 23-37 23-76 0-203-132-244-200-33-54-79-109-116-169l4 4c-9-20-41-55-54-51-14 102-5 244 6 344 3 30-15 69-41 68-9 0-28-1-56-3-44-28-39-45-39-119" id="n"/><path fill="#e6e6e6" fill-opacity=".7" d="M21-302C-7-136 9 24 196-12c147-28 263-93 386-142 57-23 26-120-26-120-111 32-240 115-378 126-13 1-22-26-25-45 30-174 59-350 88-524 10-62-86-124-120-61-39 73-49 196-69 277-19 77-22 145-31 199" id="o"/><path fill="#e6e6e6" fill-opacity=".7" d="M192-85c-3 48 46 100 89 72 52-75 73-232 102-321 46-139 146-233 278-374 22-37 2-105-46-93-81 20-199 174-252 246-53 73-46 65-110 7-63-57-96-136-132-220-11-25-31-37-54-37-36-1-56 32-56 68 32 142 118 264 224 332 15 16 24 24 21 38" id="p"/><path fill="#e6e6e6" fill-opacity=".7" d="M3-81C3-44 54-2 90-8c84-15 229-66 336-66 66 0 138-5 200-16 15-7 26-21 25-46 0-56-22-86-66-81l-355 42c-45-14 13-69 26-93 78-144 236-280 334-415 19-26 27-45 27-56-4-55-57-67-130-64-142 6-306 4-411 45-29 11-41 39-41 70 0 43 17 64 50 64 66-16 156-53 230-57 24-1 92-12 93 11 0 9-27 41-80 96C228-469 138-318 58-193 23-137 3-101 3-81" id="q"/><g id="c"><use transform="matrix(0.02777777777777777,0,0,0.02777777777777777,0,0)" xlink:href="#l"/><use transform="matrix(0.02777777777777777,0,0,0.02777777777777777,16.30555555555555,0)" xlink:href="#n"/><use transform="matrix(0.02777777777777777,0,0,0.02777777777777777,34.1111111111111,0)" xlink:href="#l"/><use transform="matrix(0.02777777777777777,0,0,0.02777777777777777,50.41666666666665,0)" xlink:href="#o"/><use transform="matrix(0.02777777777777777,0,0,0.02777777777777777,67.49999999999997,0)" xlink:href="#p"/><use transform="matrix(0.02777777777777777,0,0,0.02777777777777777,86.19444444444441,0)" xlink:href="#q"/><use transform="matrix(0.02777777777777777,0,0,0.02777777777777777,104.74999999999997,0)" xlink:href="#f"/><use transform="matrix(0.02777777777777777,0,0,0.02777777777777777,123.24999999999996,0)" xlink:href="#g"/></g><path fill="#e6e6e6" fill-opacity=".7" d="M521-275c40-33 108-24 108 34 0 49-75 103-210 183-80 47-247 72-323 10-66-54-95-101-82-218 12-106 41-136 91-224 55-96 145-209 240-278 32-23 68-33 107-33 86 2 108 61 107 158 0 55-15 82-44 82-55 1-25-116-79-110-132 15-229 223-291 334-48 86-31 226 81 218 122-9 217-92 295-156" id="r"/><path fill="#e6e6e6" fill-opacity=".7" d="M23-677c-68-88 127-122 212-122 113 0 253 24 291 82 92 144-48 310-153 365-52 27-102 48-161 69-56 20-53 15-58 80-4 49-8 103-13 153-3 31-19 46-43 46-44 0-65-28-63-81 5-162 8-330 16-486 3-53-4-75-28-106zm415 73c0-44-44-66-132-66-78 0-124 8-135 26-10 16-14 89-14 218 0 44 22 39 57 25 83-34 224-115 224-203" id="s"/><g id="d"><use transform="matrix(0.02777777777777777,0,0,0.02777777777777777,0,0)" xlink:href="#r"/><use transform="matrix(0.02777777777777777,0,0,0.02777777777777777,17.611111111111107,0)" xlink:href="#k"/><use transform="matrix(0.02777777777777777,0,0,0.02777777777777777,39.91666666666666,0)" xlink:href="#s"/><use transform="matrix(0.02777777777777777,0,0,0.02777777777777777,55.58333333333332,0)" xlink:href="#p"/></g></defs></g></svg>