<?xml version="1.0" encoding="UTF-8"?>
<svg xmlns="http://www.w3.org/2000/svg" xmlns:xlink="http://www.w3.org/1999/xlink" width="200px" height="200px" viewBox="0 0 199 136" version="1.1">
<g id="surface1">
<path style=" stroke:none;fill-rule:nonzero;fill:rgb(3.921569%,0%,9.803922%);fill-opacity:1;" d="M 0 68.085938 C 0 31.390625 26.40625 0.234375 70.363281 0.234375 C 92.417969 0.234375 111.644531 7.9375 128.523438 24.53125 C 127.683594 30.730469 123.847656 35.753906 117.160156 35.753906 C 111.140625 35.753906 107.964844 31.234375 105.125 26.03125 C 97.777344 14.640625 85.070312 3.589844 69.691406 3.589844 C 43.117188 3.589844 25.230469 29.214844 25.230469 61.546875 C 25.230469 101.246094 49.46875 124.359375 78.882812 124.359375 C 104.453125 124.359375 125.175781 106.433594 130.019531 76.613281 L 132.859375 76.613281 C 127.683594 115.144531 99.273438 135.75 67.519531 135.75 C 25.902344 135.765625 0 104.429688 0 68.085938 Z M 0 68.085938 "/>
<path style=" stroke:none;fill-rule:nonzero;fill:rgb(3.921569%,0%,9.803922%);fill-opacity:1;" d="M 121.328125 110.796875 L 121.328125 68.914062 C 121.328125 60.035156 143.550781 46.804688 143.550781 46.804688 C 142.546875 53.847656 142.210938 60.035156 142.210938 68.914062 L 142.210938 73.441406 C 149.066406 52.332031 161.253906 44.464844 178.480469 44.464844 C 179.488281 46.636719 180.148438 48.824219 180.148438 50.832031 C 180.148438 56.359375 176.132812 61.378906 169.289062 61.378906 C 158.929688 61.378906 147.398438 63.050781 142.210938 79.136719 L 142.210938 110.796875 C 142.210938 119.675781 142.546875 125.875 143.550781 132.902344 L 119.984375 132.902344 C 120.992188 125.863281 121.328125 119.675781 121.328125 110.796875 Z M 121.328125 110.796875 "/>
<path style=" stroke:none;fill-rule:nonzero;fill:rgb(3.921569%,0%,9.803922%);fill-opacity:1;" d="M 121.445312 110.796875 L 121.445312 24.363281 C 121.445312 15.148438 121.109375 9.113281 120.101562 2.253906 L 198.988281 2.253906 L 194.636719 12.972656 C 177.253906 6.605469 164.378906 5.4375 149.839844 5.4375 L 145.992188 5.4375 L 145.992188 110.808594 C 145.992188 120.023438 146.328125 126.054688 147.335938 132.917969 L 120.089844 132.917969 C 121.097656 126.042969 121.433594 120.011719 121.433594 110.808594 Z M 121.445312 110.796875 "/>
</g>
</svg>
