<svg xmlns="http://www.w3.org/2000/svg" xmlns:xlink="http://www.w3.org/1999/xlink" xmlns:lucid="lucid" width="146.95" height="84.81"><g transform="translate(-753.2965611023432 -960.3201200268829)" lucid:page-tab-id="qvuMu~.~wrXD"><path d="M773.3 986.32a6 6 0 0 1 6-6h94.95a6 6 0 0 1 6 6v32.8a6 6 0 0 1-6 6H779.3a6 6 0 0 1-6-6z" fill="#fff" fill-opacity="0"/><use xlink:href="#a" transform="matrix(1,0,0,1,778.2965611023432,985.3201200268829) translate(0 32.74999999999999)"/><defs><path fill="#e6e6e6" fill-opacity=".7" d="M330-158c82-22 193-18 286-31 38 11 58 81 24 113-25 24-71 25-116 25-135 0-238 34-358 47C61 7 4-52 15-159c12-113 37-213 32-340-2-59 2-121-2-178-2-44 35-62 81-61 104-31 222-52 345-64 68-7 103 34 111 94 2 12-3 22-9 31-33 14-62 15-103 16-100 2-196 10-270 40h-8c-18 23-11 79-15 106-1 13 5 22 16 25 82-10 176-25 264-12 44 7 78 26 71 72-7 49-76 30-125 30-78 0-138 22-210 29-24 1-35 28-36 52-2 41-10 83-8 126-19 84 122 51 181 35" id="b"/><path fill="#e6e6e6" fill-opacity=".7" d="M629-645c28 177 9 401 28 582 3 29-18 50-47 50-97 0-67-194-71-306-1-24-4-66-3-92 1-39-15-57-30-33-49 79-88 161-139 243-9 15-21 23-34 23-33 0-70-69-89-115-10-23-57-152-73-152-28 0-27 119-31 162-9 93-16 174-27 265-2 3-35 21-48 20-71-3-50-117-43-176 24-211 38-410 84-595 39-67 121 2 138 59 22 73 63 167 84 249 7 23 13 34 20 34 17 0 54-75 107-225 17-48 42-155 115-96 31 25 52 57 59 103" id="c"/><path fill="#e6e6e6" fill-opacity=".7" d="M23-677c-68-88 127-122 212-122 113 0 253 24 291 82 92 144-48 310-153 365-52 27-102 48-161 69-56 20-53 15-58 80-4 49-8 103-13 153-3 31-19 46-43 46-44 0-65-28-63-81 5-162 8-330 16-486 3-53-4-75-28-106zm415 73c0-44-44-66-132-66-78 0-124 8-135 26-10 16-14 89-14 218 0 44 22 39 57 25 83-34 224-115 224-203" id="d"/><path fill="#e6e6e6" fill-opacity=".7" d="M593-790c58 0 99 54 77 117-5 13-15 16-35 14-70-7-152-3-229 7-31 20-24 81-26 127-4 138-16 277-16 422 0 32 4 70-21 83-26 36-88 7-103-20 1-182 10-346 21-521 2-27 11-81-18-84-73-7-138 11-206 3-20-18-39-18-32-51-3-78 74-91 145-91 129 0 251 6 369-8 25-3 49 2 74 2" id="e"/><path fill="#e6e6e6" fill-opacity=".7" d="M192-85c-3 48 46 100 89 72 52-75 73-232 102-321 46-139 146-233 278-374 22-37 2-105-46-93-81 20-199 174-252 246-53 73-46 65-110 7-63-57-96-136-132-220-11-25-31-37-54-37-36-1-56 32-56 68 32 142 118 264 224 332 15 16 24 24 21 38" id="f"/><g id="a"><use transform="matrix(0.02777777777777777,0,0,0.02777777777777777,0,0)" xlink:href="#b"/><use transform="matrix(0.02777777777777777,0,0,0.02777777777777777,18.499999999999993,0)" xlink:href="#c"/><use transform="matrix(0.02777777777777777,0,0,0.02777777777777777,37.16666666666666,0)" xlink:href="#d"/><use transform="matrix(0.02777777777777777,0,0,0.02777777777777777,52.83333333333332,0)" xlink:href="#e"/><use transform="matrix(0.02777777777777777,0,0,0.02777777777777777,72.80555555555554,0)" xlink:href="#f"/></g></defs></g></svg>